<svg width="222" height="222" viewBox="0 0 222 222" fill="none" xmlns="http://www.w3.org/2000/svg">
<path d="M222 111C222 130.512 216.966 148.848 208.125 164.78V152.625C208.125 111 166.5 111 166.5 111V176.906C166.5 188.224 169.122 196.701 173.05 203.051C155.336 215.014 133.984 222 111 222C49.6964 222 0 172.304 0 111C0 98.8863 1.94046 87.2259 5.5275 76.3125H216.473C220.06 87.2259 222 98.8863 222 111Z" fill="white"/>
<path d="M173.05 203.051C184.772 222 208.125 222 208.125 222V164.78C199.603 180.137 187.545 193.26 173.05 203.051Z" fill="white"/>
<path d="M21.9503 50.5605L11.9603 27.2505C10.9243 25.0305 10.4062 23.5505 10.4062 22.8105C10.4062 21.9225 10.7023 21.4045 11.2943 21.2565C12.0343 20.9605 12.8483 20.8125 13.7362 20.8125H22.6163C24.0963 20.8125 25.2063 21.1825 25.9463 21.9225C26.8343 22.6625 27.7222 23.8465 28.6102 25.4745L38.3783 48.1185C38.8223 49.3025 39.1183 50.1905 39.2663 50.7825C39.4143 51.2265 39.5623 51.6705 39.7103 52.1145C39.7103 53.2985 39.4883 54.1125 39.0443 54.5565C38.6002 55.0005 37.5642 55.2225 35.9362 55.2225H27.9443C25.4283 55.2225 23.4303 53.6685 21.9503 50.5605Z" fill="white"/>
<path d="M79.1846 50.5605L69.1946 27.2505C68.1586 25.0305 67.6406 23.5505 67.6406 22.8105C67.6406 21.9225 67.9366 21.4045 68.5286 21.2565C69.2686 20.9605 70.0826 20.8125 70.9706 20.8125H79.8506C81.3306 20.8125 82.4406 21.1825 83.1806 21.9225C84.0686 22.6625 84.9566 23.8465 85.8446 25.4745L95.6126 48.1185C96.0566 49.3025 96.3526 50.1905 96.5006 50.7825C96.6486 51.2265 96.7966 51.6705 96.9446 52.1145C96.9446 53.2985 96.7226 54.1125 96.2786 54.5565C95.8346 55.0005 94.7986 55.2225 93.1706 55.2225H85.1786C82.6626 55.2225 80.6646 53.6685 79.1846 50.5605Z" fill="white"/>
<path d="M136.419 50.5605L126.429 27.2505C125.393 25.0305 124.875 23.5505 124.875 22.8105C124.875 21.9225 125.171 21.4045 125.763 21.2565C126.503 20.9605 127.317 20.8125 128.205 20.8125H137.085C138.565 20.8125 139.675 21.1825 140.415 21.9225C141.303 22.6625 142.191 23.8465 143.079 25.4745L152.847 48.1185C153.291 49.3025 153.587 50.1905 153.735 50.7825C153.883 51.2265 154.031 51.6705 154.179 52.1145C154.179 53.2985 153.957 54.1125 153.513 54.5565C153.069 55.0005 152.033 55.2225 150.405 55.2225H142.413C139.897 55.2225 137.899 53.6685 136.419 50.5605Z" fill="white"/>
<circle cx="197.719" cy="41.625" r="13.875" fill="url(#paint0_radial)"/>
<defs>
<radialGradient id="paint0_radial" cx="0" cy="0" r="1" gradientUnits="userSpaceOnUse" gradientTransform="translate(183.844 55.5) rotate(-44.6397) scale(77.9998)">
<stop stop-color="#FFB800"/>
<stop offset="0.296875" stop-color="#FF001F"/>
<stop offset="1" stop-color="#00A3FF"/>
</radialGradient>
</defs>
</svg>
