<svg width="187" height="45" viewBox="0 0 187 45" fill="none" xmlns="http://www.w3.org/2000/svg">
<path d="M14.976 38.592L2.016 8.352C0.672001 5.472 0 3.552 0 2.592C0 1.44 0.384 0.768007 1.152 0.57601C2.112 0.192003 3.168 0 4.32 0H15.84C17.76 0 19.2 0.48 20.16 1.44C21.312 2.4 22.464 3.936 23.616 6.04801L36.288 35.424C36.864 36.96 37.248 38.112 37.44 38.88C37.632 39.456 37.824 40.032 38.016 40.608C38.016 42.144 37.728 43.2 37.152 43.776C36.576 44.352 35.232 44.64 33.12 44.64H22.752C19.488 44.64 16.896 42.624 14.976 38.592Z" fill="url(#paint0_linear_46_93)"/>
<path d="M89.226 38.592L76.266 8.352C74.922 5.472 74.25 3.552 74.25 2.592C74.25 1.44 74.634 0.768007 75.402 0.57601C76.362 0.192003 77.418 0 78.57 0H90.09C92.01 0 93.45 0.48 94.41 1.44C95.562 2.4 96.714 3.936 97.866 6.04801L110.538 35.424C111.114 36.96 111.498 38.112 111.69 38.88C111.882 39.456 112.074 40.032 112.266 40.608C112.266 42.144 111.978 43.2 111.402 43.776C110.826 44.352 109.482 44.64 107.37 44.64H97.002C93.738 44.64 91.146 42.624 89.226 38.592Z" fill="url(#paint1_linear_46_93)"/>
<path d="M163.476 38.592L150.516 8.352C149.172 5.472 148.5 3.552 148.5 2.592C148.5 1.44 148.884 0.768007 149.652 0.57601C150.612 0.192003 151.668 0 152.82 0H164.34C166.26 0 167.7 0.48 168.66 1.44C169.812 2.4 170.964 3.936 172.116 6.04801L184.788 35.424C185.364 36.96 185.748 38.112 185.94 38.88C186.132 39.456 186.324 40.032 186.516 40.608C186.516 42.144 186.228 43.2 185.652 43.776C185.076 44.352 183.732 44.64 181.62 44.64H171.252C167.988 44.64 165.396 42.624 163.476 38.592Z" fill="url(#paint2_linear_46_93)"/>
<defs>
<linearGradient id="paint0_linear_46_93" x1="0" y1="44.64" x2="20.2102" y2="-39.803" gradientUnits="userSpaceOnUse">
<stop stop-color="#FF9900"/>
<stop offset="1" stop-color="#FF002E"/>
</linearGradient>
<linearGradient id="paint1_linear_46_93" x1="0" y1="44.64" x2="20.2102" y2="-39.803" gradientUnits="userSpaceOnUse">
<stop stop-color="#FF9900"/>
<stop offset="1" stop-color="#FF002E"/>
</linearGradient>
<linearGradient id="paint2_linear_46_93" x1="0" y1="44.64" x2="20.2102" y2="-39.803" gradientUnits="userSpaceOnUse">
<stop stop-color="#FF9900"/>
<stop offset="1" stop-color="#FF002E"/>
</linearGradient>
</defs>
</svg>
