<svg width="2123" height="771" viewBox="0 0 2123 771" fill="none" xmlns="http://www.w3.org/2000/svg">
<path d="M612.163 770C262.163 758.5 -149.558 539.443 54.1633 362.5C138.422 289.317 220.763 369 405.163 283C635.663 175.5 503.663 93 835.163 93C1754.95 93 1881.16 208.5 2077.66 362.5C2274.16 516.5 1769.66 770 1504.16 731.5C1238.66 693 1284.66 625 1146.16 625C878.431 625 962.163 781.5 612.163 770Z" fill="url(#paint0_radial_210_180)" fill-opacity="0.25"/>
<path d="M336.776 199.312V146.032L422.6 23.632H491.432V144.016H512.168V199.312H491.432V230.992H426.92V199.312H336.776ZM432.104 96.496L401 144.016H432.104V96.496Z" fill="white"/>
<path d="M627.288 232C608.088 232 590.424 227.488 574.296 218.464C558.36 209.44 545.688 196.96 536.28 181.024C526.872 165.088 522.168 147.136 522.168 127.168C522.168 107.2 526.872 89.248 536.28 73.312C545.688 57.376 558.36 44.992 574.296 36.16C590.424 27.136 608.088 22.624 627.288 22.624C646.488 22.624 664.056 27.136 679.992 36.16C695.928 44.992 708.504 57.376 717.72 73.312C727.128 89.248 731.832 107.2 731.832 127.168C731.832 147.136 727.128 165.088 717.72 181.024C708.504 196.96 695.832 209.44 679.704 218.464C663.768 227.488 646.296 232 627.288 232ZM627.288 172.384C639.96 172.384 649.752 168.352 656.664 160.288C663.576 152.032 667.032 140.992 667.032 127.168C667.032 113.152 663.576 102.112 656.664 94.048C649.752 85.792 639.96 81.664 627.288 81.664C614.424 81.664 604.536 85.792 597.624 94.048C590.712 102.112 587.256 113.152 587.256 127.168C587.256 140.992 590.712 152.032 597.624 160.288C604.536 168.352 614.424 172.384 627.288 172.384Z" fill="url(#paint1_linear_210_180)"/>
<path d="M741.832 199.312V146.032L827.656 23.632H896.488V144.016H917.224V199.312H896.488V230.992H831.976V199.312H741.832ZM837.16 96.496L806.056 144.016H837.16V96.496Z" fill="white"/>
<path d="M473.664 314V288.44H484.5C485.676 288.44 486.756 288.692 487.74 289.196C488.748 289.676 489.612 290.324 490.332 291.14C491.052 291.932 491.616 292.844 492.024 293.876C492.432 294.884 492.636 295.904 492.636 296.936C492.636 298.016 492.444 299.072 492.06 300.104C491.676 301.112 491.136 302.012 490.44 302.804C489.744 303.596 488.904 304.232 487.92 304.712C486.936 305.192 485.856 305.432 484.68 305.432H478.632V314H473.664ZM478.632 301.076H484.392C485.304 301.076 486.06 300.704 486.66 299.96C487.284 299.216 487.596 298.208 487.596 296.936C487.596 296.288 487.5 295.712 487.308 295.208C487.116 294.68 486.864 294.236 486.552 293.876C486.24 293.516 485.868 293.252 485.436 293.084C485.028 292.892 484.608 292.796 484.176 292.796H478.632V301.076ZM501.749 288.44H506.141L515.861 314H510.749L508.373 307.628H499.445L497.104 314H491.993L501.749 288.44ZM507.473 304.136L503.945 294.092L500.273 304.136H507.473ZM535.463 311.12C533.423 313.16 531.047 314.18 528.335 314.18C526.655 314.18 525.071 313.844 523.583 313.172C522.119 312.5 520.835 311.576 519.731 310.4C518.651 309.224 517.787 307.844 517.139 306.26C516.515 304.652 516.203 302.924 516.203 301.076C516.203 299.324 516.515 297.68 517.139 296.144C517.787 294.584 518.663 293.228 519.767 292.076C520.895 290.9 522.215 289.976 523.727 289.304C525.239 288.608 526.883 288.26 528.659 288.26C531.059 288.26 533.111 288.764 534.815 289.772C536.543 290.78 537.839 292.136 538.703 293.84L534.995 296.576C534.347 295.304 533.435 294.332 532.259 293.66C531.107 292.988 529.847 292.652 528.479 292.652C527.399 292.652 526.403 292.88 525.491 293.336C524.603 293.792 523.835 294.416 523.187 295.208C522.563 296 522.071 296.912 521.711 297.944C521.375 298.976 521.207 300.068 521.207 301.22C521.207 302.42 521.399 303.548 521.783 304.604C522.167 305.636 522.695 306.536 523.367 307.304C524.039 308.072 524.831 308.684 525.743 309.14C526.679 309.572 527.687 309.788 528.767 309.788C531.239 309.788 533.471 308.624 535.463 306.296V304.496H530.315V300.86H539.567V314H535.463V311.12ZM561.549 309.644V314H543.801V288.44H561.225V292.796H548.769V298.952H559.533V302.984H548.769V309.644H561.549ZM579.038 297.62V314H574.07V288.44H577.922L591.242 305.216V288.476H596.21V314H592.178L579.038 297.62ZM612.435 314.18C610.563 314.18 608.859 313.82 607.323 313.1C605.811 312.356 604.503 311.384 603.399 310.184C602.319 308.96 601.479 307.568 600.879 306.008C600.279 304.448 599.979 302.852 599.979 301.22C599.979 299.516 600.291 297.884 600.915 296.324C601.563 294.764 602.439 293.384 603.543 292.184C604.671 290.984 606.003 290.036 607.539 289.34C609.075 288.62 610.743 288.26 612.543 288.26C614.391 288.26 616.071 288.644 617.583 289.412C619.119 290.156 620.427 291.14 621.507 292.364C622.587 293.588 623.427 294.98 624.027 296.54C624.627 298.1 624.927 299.684 624.927 301.292C624.927 302.996 624.615 304.628 623.991 306.188C623.367 307.724 622.503 309.092 621.399 310.292C620.295 311.468 618.975 312.416 617.439 313.136C615.903 313.832 614.235 314.18 612.435 314.18ZM605.019 301.22C605.019 302.324 605.187 303.392 605.523 304.424C605.859 305.456 606.339 306.368 606.963 307.16C607.611 307.952 608.391 308.588 609.303 309.068C610.239 309.548 611.295 309.788 612.471 309.788C613.671 309.788 614.727 309.548 615.639 309.068C616.575 308.564 617.355 307.904 617.979 307.088C618.627 306.272 619.107 305.36 619.419 304.352C619.755 303.32 619.923 302.276 619.923 301.22C619.923 300.116 619.743 299.048 619.383 298.016C619.047 296.984 618.555 296.072 617.907 295.28C617.283 294.488 616.503 293.864 615.567 293.408C614.655 292.928 613.623 292.688 612.471 292.688C611.271 292.688 610.203 292.94 609.267 293.444C608.331 293.924 607.551 294.572 606.927 295.388C606.303 296.18 605.823 297.092 605.487 298.124C605.175 299.132 605.019 300.164 605.019 301.22ZM646.659 292.796H638.487V314H633.555V292.796H625.383V288.44H646.659V292.796ZM657.461 314V288.44H674.633V292.796H662.429V299.384H672.581V303.416H662.429V314H657.461ZM688.478 314.18C686.606 314.18 684.902 313.82 683.366 313.1C681.854 312.356 680.546 311.384 679.442 310.184C678.362 308.96 677.522 307.568 676.922 306.008C676.322 304.448 676.022 302.852 676.022 301.22C676.022 299.516 676.334 297.884 676.958 296.324C677.606 294.764 678.482 293.384 679.586 292.184C680.714 290.984 682.046 290.036 683.582 289.34C685.118 288.62 686.786 288.26 688.586 288.26C690.434 288.26 692.114 288.644 693.626 289.412C695.162 290.156 696.47 291.14 697.55 292.364C698.63 293.588 699.47 294.98 700.07 296.54C700.67 298.1 700.97 299.684 700.97 301.292C700.97 302.996 700.658 304.628 700.034 306.188C699.41 307.724 698.546 309.092 697.442 310.292C696.338 311.468 695.018 312.416 693.482 313.136C691.946 313.832 690.278 314.18 688.478 314.18ZM681.062 301.22C681.062 302.324 681.23 303.392 681.566 304.424C681.902 305.456 682.382 306.368 683.006 307.16C683.654 307.952 684.434 308.588 685.346 309.068C686.282 309.548 687.338 309.788 688.514 309.788C689.714 309.788 690.77 309.548 691.682 309.068C692.618 308.564 693.398 307.904 694.022 307.088C694.67 306.272 695.15 305.36 695.462 304.352C695.798 303.32 695.966 302.276 695.966 301.22C695.966 300.116 695.786 299.048 695.426 298.016C695.09 296.984 694.598 296.072 693.95 295.28C693.326 294.488 692.546 293.864 691.61 293.408C690.698 292.928 689.666 292.688 688.514 292.688C687.314 292.688 686.246 292.94 685.31 293.444C684.374 293.924 683.594 294.572 682.97 295.388C682.346 296.18 681.866 297.092 681.53 298.124C681.218 299.132 681.062 300.164 681.062 301.22ZM715.581 309.788C716.757 309.788 717.741 309.548 718.533 309.068C719.349 308.588 719.997 307.964 720.477 307.196C720.981 306.428 721.329 305.552 721.521 304.568C721.737 303.56 721.845 302.528 721.845 301.472V288.44H726.777V301.472C726.777 303.224 726.561 304.868 726.129 306.404C725.721 307.94 725.061 309.284 724.149 310.436C723.261 311.588 722.109 312.5 720.693 313.172C719.277 313.844 717.585 314.18 715.617 314.18C713.577 314.18 711.837 313.832 710.397 313.136C708.981 312.416 707.829 311.48 706.941 310.328C706.053 309.152 705.405 307.796 704.997 306.26C704.613 304.724 704.421 303.128 704.421 301.472V288.44H709.389V301.472C709.389 302.552 709.485 303.596 709.677 304.604C709.893 305.588 710.241 306.464 710.721 307.232C711.225 308 711.873 308.624 712.665 309.104C713.457 309.56 714.429 309.788 715.581 309.788ZM736.749 297.62V314H731.781V288.44H735.633L748.953 305.216V288.476H753.921V314H749.889L736.749 297.62ZM759.238 314V288.44H768.526C770.614 288.44 772.438 288.776 773.998 289.448C775.582 290.12 776.902 291.032 777.958 292.184C779.014 293.336 779.806 294.692 780.334 296.252C780.862 297.788 781.126 299.432 781.126 301.184C781.126 303.128 780.826 304.892 780.226 306.476C779.65 308.036 778.81 309.38 777.706 310.508C776.602 311.612 775.27 312.476 773.71 313.1C772.174 313.7 770.446 314 768.526 314H759.238ZM776.122 301.184C776.122 299.96 775.954 298.832 775.618 297.8C775.282 296.768 774.79 295.88 774.142 295.136C773.494 294.392 772.69 293.816 771.73 293.408C770.794 293 769.726 292.796 768.526 292.796H764.206V309.644H768.526C769.75 309.644 770.83 309.428 771.766 308.996C772.726 308.564 773.518 307.976 774.142 307.232C774.79 306.464 775.282 305.564 775.618 304.532C775.954 303.5 776.122 302.384 776.122 301.184Z" fill="white"/>
<path d="M696.124 382.871L723.709 447.226C726.57 453.355 728 457.441 728 459.484C728 461.935 727.183 463.366 725.548 463.774C723.505 464.591 721.257 465 718.805 465L694.284 465C690.198 465 687.133 463.978 685.089 461.935C682.637 459.892 680.185 456.624 677.733 452.129L650.761 389.613C649.535 386.344 648.717 383.893 648.309 382.258C647.9 381.032 647.491 379.806 647.083 378.581C647.083 375.312 647.696 373.065 648.922 371.839C650.148 370.613 653.009 370 657.504 370L679.572 370C686.52 370 692.037 374.29 696.124 382.871Z" fill="white"/>
<path d="M538.082 382.871L565.668 447.226C568.528 453.355 569.959 457.441 569.959 459.484C569.959 461.935 569.141 463.366 567.507 463.774C565.463 464.591 563.216 465 560.763 465L536.243 465C532.156 465 529.091 463.978 527.048 461.935C524.596 459.892 522.144 456.624 519.692 452.129L492.719 389.613C491.493 386.344 490.676 383.892 490.267 382.258C489.859 381.032 489.45 379.806 489.041 378.581C489.041 375.312 489.654 373.065 490.88 371.839C492.106 370.613 494.967 370 499.463 370L521.531 370C528.478 370 533.995 374.29 538.082 382.871Z" fill="white"/>
<path d="M380.041 382.871L407.626 447.226C410.487 453.355 411.917 457.441 411.917 459.484C411.917 461.935 411.1 463.366 409.465 463.774C407.422 464.591 405.174 465 402.722 465L378.202 465C374.115 465 371.05 463.978 369.007 461.935C366.555 459.892 364.102 456.624 361.65 452.129L334.678 389.613C333.452 386.344 332.635 383.892 332.226 382.258C331.817 381.032 331.409 379.806 331 378.581C331 375.312 331.613 373.065 332.839 371.839C334.065 370.613 336.926 370 341.421 370L363.489 370C370.437 370 375.954 374.29 380.041 382.871Z" fill="white"/>
<ellipse cx="875.5" cy="417.5" rx="47.5" ry="47.5" transform="rotate(-180 875.5 417.5)" fill="url(#paint2_radial_210_180)"/>
<path d="M1023 354.286C1023 292.009 1039.06 233.485 1067.25 182.634L1067.25 221.429C1067.25 354.286 1200 354.286 1200 354.286L1200 143.929C1200 107.805 1191.64 80.7483 1179.11 60.4821C1235.6 22.2964 1303.7 3.7299e-05 1377 4.37072e-05C1572.51 6.07991e-05 1731 158.619 1731 354.286C1731 392.95 1724.81 430.167 1713.37 465L1040.63 465C1029.19 430.167 1023 392.95 1023 354.286Z" fill="white"/>
<path d="M1179.11 60.4821C1141.73 9.624e-06 1067.25 8.87076e-05 1067.25 8.87076e-05L1067.25 182.634C1094.43 133.617 1132.88 91.7297 1179.11 60.4821Z" fill="white"/>
<defs>
<radialGradient id="paint0_radial_210_180" cx="0" cy="0" r="1" gradientUnits="userSpaceOnUse" gradientTransform="translate(0 770.604) rotate(-17.3554) scale(2612.3 1487.88)">
<stop stop-color="#00C2FF"/>
<stop offset="1" stop-color="#AD00FF"/>
</radialGradient>
<linearGradient id="paint1_linear_210_180" x1="522.168" y1="232" x2="731.544" y2="22.3362" gradientUnits="userSpaceOnUse">
<stop stop-color="#FF9900"/>
<stop offset="1" stop-color="#FF002E"/>
</linearGradient>
<radialGradient id="paint2_radial_210_180" cx="0" cy="0" r="1" gradientUnits="userSpaceOnUse" gradientTransform="translate(828 465) rotate(-44.6396) scale(267.026)">
<stop stop-color="#FFB800"/>
<stop offset="0.296875" stop-color="#FF001F"/>
<stop offset="1" stop-color="#00A3FF"/>
</radialGradient>
</defs>
</svg>
