<svg id="Layer_1" data-name="Layer 1" xmlns="http://www.w3.org/2000/svg" viewBox="0 0 127.97 125.03"><defs><style>.cls-1{fill:#fff;}</style></defs><title>adobe-after-effects</title><g id="After_Effects" data-name="After Effects"><path class="cls-1" d="M356.45,160V285h128V160ZM474.26,275.1H366.9v-105H474.26Z" transform="translate(-356.45 -159.98)"/><path class="cls-1" d="M391.25,233l-4.65,15.31H376.41l17.32-54h12.59l17.56,54H413.3L408.41,233Zm15.47-7.46-4.25-13.31c-1-3.29-1.92-7-2.72-10.1h-.16c-.8,3.12-1.61,6.89-2.57,10.1l-4.17,13.31Z" transform="translate(-356.45 -159.98)"/><path class="cls-1" d="M437,231.57c.24,7.05,5.77,10.1,12,10.1a29.23,29.23,0,0,0,10.83-1.77l1.44,6.82a36.69,36.69,0,0,1-13.63,2.49c-12.67,0-20.13-7.86-20.13-19.81,0-10.82,6.58-21,19.09-21,12.75,0,16.84,10.43,16.84,19a24.45,24.45,0,0,1-.32,4.17Zm17.16-6.9c.08-3.61-1.53-9.54-8.1-9.54-6.1,0-8.66,5.53-9.06,9.54Z" transform="translate(-356.45 -159.98)"/></g></svg>