<svg id="Layer_1" data-name="Layer 1" xmlns="http://www.w3.org/2000/svg" viewBox="0 0 64 64"><defs><style>.cls-1{fill:#fff;}</style></defs><title>davinci-resolve</title><path class="cls-1" d="M32,0A32,32,0,1,0,64,32,32,32,0,0,0,32,0Zm0,4.92A27.08,27.08,0,1,1,4.92,32,27,27,0,0,1,32,4.92Zm0,4.93a9.88,9.88,0,0,0-9.85,9.84c0,3.92,2.07,7.23,4,9.72a20.45,20.45,0,0,0-4.25-.16,12.78,12.78,0,0,0-5.51,1.61,9.87,9.87,0,0,0-3.6,13.45h0a9.88,9.88,0,0,0,13.45,3.6A14.72,14.72,0,0,0,32,41.09a14.72,14.72,0,0,0,5.74,6.82,9.88,9.88,0,0,0,13.45-3.6h0a9.87,9.87,0,0,0-3.6-13.45,12.78,12.78,0,0,0-5.51-1.61,20.45,20.45,0,0,0-4.25.16c2-2.49,4-5.8,4-9.72A9.88,9.88,0,0,0,32,9.85Zm0,4.92a4.88,4.88,0,0,1,4.92,4.92c0,2.09-1.47,4.83-3.15,6.93A13.33,13.33,0,0,1,32,28.46a13.33,13.33,0,0,1-1.77-1.84c-1.68-2.1-3.15-4.84-3.15-6.93A4.88,4.88,0,0,1,32,14.77ZM24.4,34.19a19.24,19.24,0,0,1,2.05.2,13.19,13.19,0,0,1,2.49.61,13.73,13.73,0,0,1-.72,2.46c-1,2.5-2.61,5.14-4.42,6.19a4.92,4.92,0,0,1-4.92-8.53,8.43,8.43,0,0,1,3.47-.91A17.48,17.48,0,0,1,24.4,34.19Zm15.2,0a17.48,17.48,0,0,1,2,0,8.43,8.43,0,0,1,3.47.91,4.92,4.92,0,0,1-4.92,8.53c-1.81-1-3.44-3.69-4.42-6.19A13.73,13.73,0,0,1,35.06,35a13.19,13.19,0,0,1,2.49-.61A19.24,19.24,0,0,1,39.6,34.19Z"/></svg>