<svg width="426" height="51" viewBox="0 0 426 51" fill="none" xmlns="http://www.w3.org/2000/svg">
<path d="M41.672 8.72C41.8853 8.93333 42.056 9.14666 42.184 9.36C42.312 9.53066 42.376 9.744 42.376 10C42.376 10.256 42.2693 10.5547 42.056 10.896L32.904 19.28C32.7333 19.536 32.52 19.664 32.264 19.664C32.0507 19.664 31.816 19.536 31.56 19.28C30.7493 18.4267 29.8107 17.744 28.744 17.232C27.6773 16.72 26.312 16.464 24.648 16.464C23.3253 16.464 22.088 16.7413 20.936 17.296C19.8267 17.808 18.8667 18.512 18.056 19.408C17.2453 20.304 16.6053 21.3493 16.136 22.544C15.6667 23.696 15.432 24.912 15.432 26.192C15.432 27.3867 15.6453 28.5813 16.072 29.776C16.4987 30.928 17.1173 31.9733 17.928 32.912C18.7387 33.808 19.6987 34.5333 20.808 35.088C21.9173 35.6427 23.1547 35.92 24.52 35.92C25.928 35.92 27.336 35.6213 28.744 35.024V29.52C28.744 29.136 28.8507 28.816 29.064 28.56C29.32 28.2613 29.6827 28.112 30.152 28.112H40.904C41.2453 28.112 41.5867 28.24 41.928 28.496C42.312 28.752 42.504 29.0933 42.504 29.52V42.384C42.504 42.8107 42.3547 43.1733 42.056 43.472L41.8 43.728C39.368 46.16 36.7227 47.9307 33.864 49.04C31.0053 50.1493 28.104 50.704 25.16 50.704C21.7893 50.704 18.5893 50.1067 15.56 48.912C12.5733 47.7173 9.94933 46.0533 7.688 43.92C5.42667 41.744 3.61333 39.1627 2.248 36.176C0.925333 33.1467 0.264 29.84 0.264 26.256C0.264 23.1413 0.861334 20.112 2.056 17.168C3.29333 14.224 4.97867 11.6213 7.112 9.36C9.288 7.09866 11.848 5.28533 14.792 3.92C17.7787 2.512 21 1.808 24.456 1.808C26.5467 1.808 28.4027 2 30.024 2.384C31.688 2.72533 33.1813 3.216 34.504 3.856C35.8693 4.45333 37.128 5.17867 38.28 6.032C39.432 6.84266 40.5627 7.73866 41.672 8.72ZM69.0625 39.568H69.1265C69.2118 39.4827 69.2972 39.44 69.3825 39.44C69.5105 39.44 69.6172 39.44 69.7025 39.44C69.8305 39.44 69.9372 39.4827 70.0225 39.568C70.1505 39.6107 70.2998 39.7387 70.4705 39.952L74.2465 45.456V45.392C74.5025 45.648 74.6305 45.9253 74.6305 46.224C74.6305 46.608 74.5025 46.928 74.2465 47.184C74.0332 47.44 73.7772 47.6533 73.4785 47.824C72.1132 48.7627 70.6412 49.4667 69.0625 49.936C67.4838 50.3627 65.7985 50.576 64.0065 50.576C61.7878 50.576 59.6972 50.1707 57.7345 49.36C55.7718 48.5067 54.0652 47.3547 52.6145 45.904C51.1638 44.4533 50.0118 42.7467 49.1585 40.784C48.3478 38.7787 47.9425 36.6453 47.9425 34.384C47.9425 32.2507 48.3265 30.2027 49.0945 28.24C49.9052 26.2773 50.9932 24.5707 52.3585 23.12C53.7665 21.6267 55.4305 20.4533 57.3505 19.6C59.2705 18.704 61.3398 18.256 63.5585 18.256C65.6065 18.256 67.5265 18.6187 69.3185 19.344C71.1105 20.0693 72.6892 21.072 74.0545 22.352C75.4625 23.632 76.5932 25.1467 77.4465 26.896C78.3425 28.6027 78.8972 30.48 79.1105 32.528C79.0678 34.2347 78.6838 35.6 77.9585 36.624C77.2332 37.648 75.8465 38.16 73.7985 38.16H59.7185C60.2305 38.9707 60.9345 39.632 61.8305 40.144C62.7692 40.656 63.6225 40.912 64.3905 40.912C65.3292 40.912 66.2465 40.784 67.1425 40.528C68.0385 40.2293 68.6785 39.9093 69.0625 39.568ZM64.1345 28.048C63.0678 28.048 62.1718 28.304 61.4465 28.816C60.7212 29.328 60.1878 29.9467 59.8465 30.672H68.4225C68.0812 30.1173 67.5692 29.5413 66.8865 28.944C66.2465 28.3467 65.3292 28.048 64.1345 28.048ZM85.647 9.744C85.647 9.36 85.7537 9.01867 85.967 8.72C86.223 8.37866 86.5857 8.16533 87.055 8.08L97.295 6.288C97.6363 6.20266 97.9777 6.288 98.319 6.544C98.6603 6.75733 98.831 7.07733 98.831 7.504V18.768H101.647C102.202 18.768 102.65 18.9173 102.991 19.216C103.375 19.5147 103.567 19.9627 103.567 20.56V27.024C103.567 27.408 103.396 27.8347 103.055 28.304C102.714 28.7307 102.244 28.944 101.647 28.944H98.831V48.592C98.831 49.5307 98.319 50 97.295 50H87.055C86.1163 50 85.647 49.5307 85.647 48.592V28.944H84.047C82.8097 28.944 82.191 28.304 82.191 27.024V20.56C82.191 19.3653 82.8097 18.768 84.047 18.768H85.647V9.744ZM130.601 20.112C130.601 19.728 130.707 19.408 130.921 19.152C131.177 18.8533 131.539 18.704 132.009 18.704H142.953C143.294 18.704 143.635 18.832 143.977 19.088C144.361 19.344 144.553 19.6853 144.553 20.112V48.592C144.553 49.5307 144.019 50 142.953 50H132.009C131.07 50 130.601 49.5307 130.601 48.592V20.112ZM130.089 7.504C130.089 6.48 130.281 5.52 130.665 4.624C131.091 3.68533 131.625 2.896 132.265 2.256C132.947 1.57333 133.737 1.04 134.633 0.655998C135.529 0.229332 136.489 0.0159988 137.513 0.0159988C138.579 0.0159988 139.561 0.229332 140.457 0.655998C141.395 1.04 142.185 1.57333 142.825 2.256C143.507 2.896 144.019 3.68533 144.361 4.624C144.745 5.52 144.937 6.48 144.937 7.504C144.937 8.528 144.745 9.488 144.361 10.384C144.019 11.2373 143.507 12.0053 142.825 12.688C142.185 13.3707 141.395 13.904 140.457 14.288C139.561 14.672 138.579 14.864 137.513 14.864C136.489 14.864 135.529 14.672 134.633 14.288C133.737 13.904 132.947 13.3707 132.265 12.688C131.625 12.0053 131.091 11.2373 130.665 10.384C130.281 9.488 130.089 8.528 130.089 7.504ZM178.237 34.32C178.237 33.1253 177.917 32.144 177.277 31.376C176.637 30.5653 175.741 30.16 174.589 30.16C173.48 30.16 172.413 30.5227 171.389 31.248C170.408 31.9307 169.874 32.8267 169.789 33.936V48.592C169.789 49.0187 169.618 49.36 169.277 49.616C168.936 49.872 168.594 50 168.253 50H157.821C157.352 50 156.989 49.872 156.733 49.616C156.52 49.3173 156.413 48.976 156.413 48.592V20.496C156.413 20.24 156.456 19.984 156.541 19.728C156.669 19.472 156.84 19.2587 157.053 19.088C157.266 18.9173 157.48 18.8107 157.693 18.768C157.949 18.7253 158.162 18.704 158.333 18.704H165.309C166.205 18.704 166.781 19.024 167.037 19.664C167.336 20.304 167.656 21.2213 167.997 22.416C168.338 21.9893 168.85 21.52 169.533 21.008C170.216 20.496 171.026 20.0267 171.965 19.6C172.904 19.1733 173.949 18.832 175.101 18.576C176.253 18.2773 177.49 18.128 178.813 18.128C181.544 18.128 183.741 18.5547 185.405 19.408C187.069 20.2613 188.349 21.4347 189.245 22.928C190.184 24.3787 190.802 26.0853 191.101 28.048C191.4 30.0107 191.549 32.08 191.549 34.256V48.592C191.549 49.0187 191.378 49.36 191.037 49.616C190.696 49.872 190.354 50 190.013 50H179.645C179.176 50 178.813 49.872 178.557 49.616C178.344 49.3173 178.237 48.976 178.237 48.592V34.32ZM257.92 2.512C258.304 2.512 258.624 2.64 258.88 2.896C259.179 3.10933 259.328 3.45067 259.328 3.92V14.16C259.328 14.5013 259.2 14.864 258.944 15.248C258.688 15.5893 258.347 15.76 257.92 15.76H246.464V48.592C246.464 49.5307 245.952 50 244.928 50H232.512C231.573 50 231.104 49.5307 231.104 48.592V15.76H219.712C218.773 15.76 218.304 15.2267 218.304 14.16V3.92C218.304 2.98133 218.773 2.512 219.712 2.512H257.92ZM253.169 34.384C253.169 32.1227 253.617 30.0107 254.513 28.048C255.409 26.0853 256.646 24.3787 258.225 22.928C259.803 21.4773 261.638 20.3467 263.729 19.536C265.819 18.6827 268.081 18.256 270.513 18.256C272.902 18.256 275.142 18.6827 277.233 19.536C279.366 20.3467 281.222 21.4773 282.801 22.928C284.379 24.3787 285.617 26.0853 286.513 28.048C287.409 30.0107 287.857 32.1227 287.857 34.384C287.857 36.6453 287.409 38.7787 286.513 40.784C285.617 42.7467 284.379 44.4533 282.801 45.904C281.222 47.3547 279.366 48.5067 277.233 49.36C275.142 50.1707 272.902 50.576 270.513 50.576C268.081 50.576 265.819 50.1707 263.729 49.36C261.638 48.5067 259.803 47.3547 258.225 45.904C256.646 44.4533 255.409 42.7467 254.513 40.784C253.617 38.7787 253.169 36.6453 253.169 34.384ZM266.993 34.576C266.993 35.8133 267.334 36.816 268.017 37.584C268.699 38.352 269.595 38.736 270.705 38.736C271.899 38.736 272.838 38.352 273.521 37.584C274.246 36.816 274.609 35.8133 274.609 34.576C274.609 33.3813 274.246 32.3787 273.521 31.568C272.838 30.7573 271.899 30.352 270.705 30.352C269.595 30.352 268.699 30.7573 268.017 31.568C267.334 32.3787 266.993 33.3813 266.993 34.576ZM305.107 20.112V34.384C305.107 35.5787 305.448 36.5813 306.131 37.392C306.856 38.16 307.774 38.544 308.883 38.544C309.992 38.544 310.888 38.2027 311.571 37.52C312.254 36.7947 312.638 35.8773 312.723 34.768V20.112C312.723 19.6853 312.894 19.344 313.235 19.088C313.619 18.832 313.96 18.704 314.259 18.704H324.691C325.16 18.704 325.502 18.8533 325.715 19.152C325.971 19.408 326.099 19.728 326.099 20.112V48.208C326.099 48.464 326.056 48.72 325.971 48.976C325.886 49.232 325.715 49.4453 325.459 49.616C325.288 49.7867 325.075 49.8933 324.819 49.936C324.606 49.9787 324.414 50 324.243 50H317.267C316.542 50 316.072 49.8293 315.859 49.488C315.688 49.1467 315.496 48.6987 315.283 48.144L314.579 46.288C314.152 46.7147 313.555 47.184 312.787 47.696C312.062 48.1653 311.272 48.6133 310.419 49.04C309.566 49.4667 308.67 49.808 307.731 50.064C306.835 50.3627 306.003 50.5333 305.235 50.576C302.76 50.576 300.67 50.1493 298.963 49.296C297.256 48.4427 295.87 47.2907 294.803 45.84C293.779 44.3467 293.032 42.6187 292.563 40.656C292.094 38.6933 291.859 36.624 291.859 34.448V20.112C291.859 19.6853 292.03 19.344 292.371 19.088C292.712 18.832 293.054 18.704 293.395 18.704H303.699C304.168 18.704 304.51 18.8533 304.723 19.152C304.979 19.408 305.107 19.728 305.107 20.112ZM353.467 37.712C354.022 37.456 354.47 37.584 354.811 38.096L358.971 45.2C359.27 45.712 359.334 46.16 359.163 46.544C358.992 46.8853 358.672 47.2267 358.203 47.568C356.923 48.464 355.494 49.1893 353.915 49.744C352.336 50.2987 350.651 50.576 348.859 50.576C346.64 50.576 344.55 50.1707 342.587 49.36C340.667 48.5067 338.982 47.3547 337.531 45.904C336.08 44.4533 334.928 42.7467 334.075 40.784C333.264 38.7787 332.859 36.6453 332.859 34.384C332.859 32.1227 333.264 30.0107 334.075 28.048C334.928 26.0853 336.08 24.3787 337.531 22.928C338.982 21.4773 340.667 20.3467 342.587 19.536C344.55 18.6827 346.64 18.256 348.859 18.256C350.651 18.256 352.272 18.4907 353.723 18.96C355.174 19.4293 356.624 20.0267 358.075 20.752C358.544 20.9653 358.907 21.328 359.163 21.84C359.419 22.352 359.419 22.8427 359.163 23.312L355.067 30.928C354.683 31.696 354.15 31.8667 353.467 31.44C353.126 31.184 352.55 30.9493 351.739 30.736C350.971 30.48 350.331 30.352 349.819 30.352C348.667 30.352 347.728 30.7787 347.003 31.632C346.32 32.4853 345.979 33.4667 345.979 34.576C345.979 35.8133 346.32 36.8373 347.003 37.648C347.728 38.416 348.667 38.8 349.819 38.8C350.672 38.8 351.376 38.672 351.931 38.416C352.528 38.16 353.04 37.9253 353.467 37.712ZM367.288 3.984C367.288 3.6 367.395 3.28 367.608 3.024C367.864 2.72533 368.227 2.576 368.696 2.576H379C379.341 2.576 379.683 2.704 380.024 2.96C380.365 3.216 380.536 3.55733 380.536 3.984V21.968C381.645 21.1147 383.011 20.2613 384.632 19.408C386.253 18.5547 388.152 18.128 390.328 18.128C392.803 18.128 394.829 18.5547 396.408 19.408C397.987 20.2613 399.224 21.4347 400.12 22.928C401.016 24.3787 401.613 26.0853 401.912 28.048C402.253 30.0107 402.424 32.08 402.424 34.256V48.592C402.424 49.0187 402.253 49.36 401.912 49.616C401.571 49.872 401.229 50 400.888 50H390.52C390.051 50 389.688 49.872 389.432 49.616C389.219 49.3173 389.112 48.976 389.112 48.592V34.32C389.112 33.1253 388.771 32.144 388.088 31.376C387.405 30.5653 386.509 30.16 385.4 30.16C384.333 30.16 383.288 30.5013 382.264 31.184C381.24 31.8667 380.664 32.7413 380.536 33.808V48.592C380.493 49.5307 380.024 50 379.128 50H369.016C367.864 50 367.288 49.5307 367.288 48.592V3.984ZM410.589 43.216C410.589 42.192 410.781 41.232 411.165 40.336C411.591 39.44 412.125 38.6507 412.765 37.968C413.447 37.2853 414.237 36.752 415.133 36.368C416.029 35.984 416.989 35.792 418.013 35.792C419.079 35.792 420.061 35.984 420.957 36.368C421.895 36.752 422.685 37.2853 423.325 37.968C424.007 38.6507 424.519 39.44 424.861 40.336C425.245 41.232 425.437 42.192 425.437 43.216C425.437 44.24 425.245 45.2 424.861 46.096C424.519 46.992 424.007 47.7813 423.325 48.464C422.685 49.104 421.895 49.616 420.957 50C420.061 50.4267 419.079 50.64 418.013 50.64C416.989 50.64 416.029 50.4267 415.133 50C414.237 49.616 413.447 49.104 412.765 48.464C412.125 47.7813 411.591 46.992 411.165 46.096C410.781 45.2 410.589 44.24 410.589 43.216Z" fill="url(#paint0_linear)"/>
<defs>
<linearGradient id="paint0_linear" x1="-3" y1="-7" x2="127.582" y2="286.754" gradientUnits="userSpaceOnUse">
<stop stop-color="#FFF500"/>
<stop offset="1" stop-color="#FF0099"/>
</linearGradient>
</defs>
</svg>
