<svg width="503" height="400" viewBox="0 0 503 400" fill="none" xmlns="http://www.w3.org/2000/svg">
<mask id="mask0_2_273" style="mask-type:luminance" maskUnits="userSpaceOnUse" x="123" y="0" width="380" height="400">
<path d="M503 0H123V400H503V0Z" fill="white"/>
</mask>
<g mask="url(#mask0_2_273)">
<path fill-rule="evenodd" clip-rule="evenodd" d="M307.065 99.2443C300.589 103.147 294.226 105.033 291.24 104.263C283.75 102.333 283.062 74.9351 288.857 64.1339C294.651 53.3328 324.442 48.625 325.943 70.0255C326.464 77.4529 323.346 84.0814 318.738 89.4901L327 128H303L307.065 99.2443Z" fill="#B28B67"/>
<path fill-rule="evenodd" clip-rule="evenodd" d="M278.224 49.1604C278.721 47.4135 280.058 45.9178 281.86 45.474C282.296 45.3664 282.748 45.3229 283.197 45.341C283.358 45.3475 283.404 45.394 283.479 45.2812C283.535 45.1976 283.536 44.9934 283.559 44.8951C283.631 44.5896 283.72 44.2879 283.831 43.994C284.208 42.9917 284.841 42.1046 285.605 41.3573C287.033 39.9593 288.963 38.9944 290.968 38.8199C292.066 38.7244 293.155 38.9027 294.193 39.2597C294.73 39.4445 295.251 39.6746 295.758 39.929C295.911 40.0056 296.406 40.3806 296.559 40.3563C296.729 40.3295 297.069 39.9088 297.207 39.8032C298.908 38.4979 301.009 37.9847 303.128 38.0003C305.52 38.018 307.823 38.1375 309.818 39.5957C310.241 39.9044 310.643 40.2425 311.026 40.5983C311.228 40.7857 311.423 40.9801 311.609 41.1825C311.722 41.3047 311.831 41.4296 311.936 41.5579C312.115 41.7756 312.086 41.8471 312.337 41.6952C313.297 41.1119 314.409 40.8391 315.53 40.9768C316.195 41.0586 316.843 41.2584 317.458 41.5213C317.667 41.6109 318.151 41.9679 318.374 41.9714C318.596 41.9748 319.073 41.6438 319.301 41.5597C320.533 41.1052 321.86 40.9931 323.154 41.2032C324.489 41.4199 325.8 41.9525 326.931 42.6885C327.475 43.0425 327.95 43.4348 328.331 43.9612C328.496 44.1885 328.644 44.4289 328.831 44.6396C328.94 44.763 329.156 44.8897 329.215 45.0458C329.18 44.9523 330.675 44.376 330.816 44.3391C331.568 44.1428 332.333 44.1826 333.069 44.4248C334.453 44.8803 335.643 45.9016 336.621 46.9487C337.123 47.4866 337.563 48.0811 337.936 48.7145C338.115 49.0179 338.279 49.33 338.428 49.6487C338.501 49.8031 338.549 49.9962 338.644 50.1353C338.768 50.3146 338.85 50.318 339.073 50.3961C340.206 50.7929 341.238 51.4645 342.025 52.3721C342.82 53.2902 343.336 54.4209 343.552 55.6116C343.565 55.6817 343.573 55.9724 343.614 56.0103C343.67 56.0626 343.898 56.0395 343.984 56.0496C344.282 56.0846 344.579 56.1367 344.871 56.2059C345.41 56.3335 345.934 56.5211 346.43 56.7666C348.364 57.7235 349.747 59.5175 350.424 61.5361C351.135 63.6546 351.122 66.0816 350.273 68.1605C350.136 68.4963 349.973 68.8222 349.781 69.1305C349.664 69.3198 349.626 69.3203 349.702 69.5189C349.787 69.7398 349.943 69.9545 350.044 70.1703C350.374 70.8748 350.604 71.6219 350.75 72.3851C350.989 73.6368 351.108 74.9523 350.872 76.2136C350.762 76.7993 350.572 77.3718 350.281 77.8934C350.132 78.1594 349.958 78.4116 349.762 78.645C349.661 78.7661 349.553 78.8818 349.439 78.9927C349.375 79.056 349.29 79.1114 349.235 79.1822C349.101 79.3546 349.073 79.2128 349.142 79.4661C349.239 79.8201 349.458 80.1694 349.592 80.5139C349.731 80.8689 349.856 81.2288 349.97 81.5923C350.202 82.3282 350.398 83.0774 350.521 83.8395C350.756 85.3028 350.715 86.8619 350.023 88.2048C349.727 88.7793 349.302 89.2832 348.787 89.6752C348.535 89.8669 348.262 90.0322 347.976 90.168C347.829 90.2378 347.641 90.2678 347.574 90.4101C347.501 90.5631 347.609 90.867 347.633 91.038C347.846 92.5263 347.953 94.0889 347.51 95.5473C347.103 96.8907 346.206 98.0767 345.041 98.8619C342.781 100.385 339.735 100.299 337.361 99.0798C336.742 98.7619 336.163 98.3672 335.647 97.9017C334.331 99.6722 331.625 99.6162 329.703 99.1117C327.308 98.4832 325.386 96.818 324.279 94.63C322.765 96.473 319.588 95.875 318.538 93.8757C318.281 93.3864 318.129 92.8471 318.054 92.3014C318.014 92.0144 318.039 91.7249 318.01 91.4402C317.972 91.0774 317.73 90.7249 317.59 90.374C317.319 89.691 317.151 88.9855 317.143 88.2488C317.14 87.8641 317.188 87.4893 317.225 87.1077C317.258 86.7642 317.163 86.4442 317.108 86.1052C317.723 86.2064 318.471 86.0407 319.05 85.8626C319.617 85.6879 320.149 85.2276 320.55 84.8072C321.481 83.8311 322.049 82.5515 322.438 81.2779C323.292 78.4826 322.942 75.129 320.13 73.5949C318.82 72.8802 314.897 72.8826 313.337 73.2358C311.696 73.6071 309.837 77.2264 309.745 77.5666C309.689 77.7771 309.717 78.0377 309.524 78.178C309.099 78.4864 308.398 77.9511 308.084 77.6869C307.543 77.231 307.157 76.6243 306.823 76.0094C306.095 74.6696 305.508 73.2329 305.093 71.7663C304.773 70.6356 304.569 69.4695 304.151 68.3676C303.735 67.2712 303.08 66.2912 302.06 65.67C300.952 64.9943 299.681 64.6385 298.464 64.2138C297.257 63.793 296.071 63.2787 295.136 62.3857C294.93 62.1894 294.731 61.9807 294.565 61.7495C294.435 61.567 294.305 61.2177 294.106 61.102C293.797 60.922 293.345 61.3901 293.077 61.56C291.757 62.3986 290.655 63.5683 289.767 64.846C288.883 66.1167 288.158 67.3395 287.569 68.7584C287.132 69.8108 286.859 71.1586 286.091 72.0211C285.748 72.4062 283.197 72.6392 282.371 72.303C281.545 71.9667 280.619 71.0937 280.342 70.5466C280.058 69.9866 279.99 69.3715 280.111 68.7584C280.183 68.3978 280.328 68.0609 280.408 67.7066C280.475 67.4091 280.536 67.1278 280.681 66.8552C280.955 66.3386 281.424 65.9673 281.99 65.8121C281.401 65.2694 280.914 64.6203 280.576 63.8946C280.226 63.1407 279.928 62.2238 279.844 61.3964C279.776 60.7243 279.881 60.028 280.249 59.4504C280.635 58.8445 281.319 58.4492 281.911 58.0713C281.007 57.3642 280.233 56.5044 279.598 55.5524C278.361 53.7011 277.596 51.3675 278.224 49.1604Z" fill="black"/>
<path fill-rule="evenodd" clip-rule="evenodd" d="M394 253C402.837 253 410 260.163 410 269V361C410 369.837 402.837 377 394 377H279C270.163 377 263 369.837 263 361V269C263 260.163 270.163 253 279 253H394ZM378 281C380.209 281 382 282.791 382 285V345C382 347.209 380.209 349 378 349H295C292.791 349 291 347.209 291 345V285C291 282.791 292.791 281 295 281H378Z" fill="#C5CFD6"/>
<path fill-rule="evenodd" clip-rule="evenodd" d="M217.289 307.58C213.57 320.608 204.304 345.301 191.491 373.66L179.315 370.107C189.967 304.853 198.832 261.651 203.91 248.502C207.265 239.814 232.647 240.832 229.727 258.313C228.502 265.643 223.657 285.272 217.289 307.58ZM267.333 261.361C287.188 265.475 328.356 280.017 340.112 284.663C347.5 287.584 342.737 297.488 336.434 296.621C335.367 296.475 331.59 296.052 325.956 295.422C307.858 293.397 270.588 289.228 242.321 285.159C227.437 283.017 235.444 255.138 250.898 258.088C256.097 259.081 261.627 260.179 267.333 261.361Z" fill="#B28B67"/>
<path fill-rule="evenodd" clip-rule="evenodd" d="M203.131 241.138C205.161 234.514 297.438 211 297.438 211H305V218.047L241.413 250.416C241.497 251.461 241.446 252.565 241.241 253.729C241.7 277.726 231.429 295.653 221.261 313.402C214.612 325.008 208.006 336.539 204.472 349.641L181.111 346.156C181.791 344.416 182.867 336.568 184.339 325.839C188.048 298.785 194.271 253.409 203 241.403C203.031 241.361 203.062 241.32 203.093 241.278C203.104 241.231 203.117 241.185 203.131 241.138Z" fill="#1F28CF"/>
<path fill-rule="evenodd" clip-rule="evenodd" d="M299.717 269.64C305.535 268.476 310.893 267.436 315.477 266.632C345.091 261.438 353.726 245.586 348.62 211H294.058C285.145 213.56 238.826 232.985 214.793 243.316C198.887 250.154 203.901 274.804 212.909 281.219C212.958 281.613 213.12 281.88 213.409 282C247.56 296.154 276.682 295.098 295.383 294.42C303.216 294.136 309.22 293.918 313 294.912L318.923 276.228L299.717 269.64Z" fill="#2B44FF"/>
<path fill-rule="evenodd" clip-rule="evenodd" d="M333.872 283.695C333.918 282.525 334.906 281.589 336.07 281.713C338.194 281.939 341.328 282.38 342.853 283.124C345.284 284.31 349.553 287.395 349.553 287.395C348.178 290.215 324.828 338.088 324.828 338.088C324.828 338.088 317.332 336.878 318.888 332.367C320.443 327.855 321.397 324.835 321.397 324.835L322.385 296.15C322.404 295.587 322.885 295.151 323.447 295.186L327.859 295.463C327.859 295.463 331.621 292.419 332.822 289.955C333.554 288.455 333.796 285.655 333.872 283.695Z" fill="#E4E4E4"/>
<path fill-rule="evenodd" clip-rule="evenodd" d="M194.55 367.284C195.622 366.813 196.896 367.29 197.295 368.391C198.023 370.398 199 373.409 199 375.106C199 377.811 198.099 383 198.099 383C194.961 383 141.697 383 141.697 383C141.697 383 139.498 375.732 144.235 375.152C148.972 374.573 152.105 374.106 152.105 374.106L178.32 362.419C178.835 362.189 179.437 362.43 179.652 362.951L181.337 367.039C181.337 367.039 185.722 369.085 188.463 369.085C190.132 369.085 192.754 368.074 194.55 367.284Z" fill="#E4E4E4"/>
<path fill-rule="evenodd" clip-rule="evenodd" d="M248.114 135.69L282.824 154.7L270.006 168.458L244.785 145.365C231.499 141.704 225.423 139.025 226.557 137.329C227.514 135.9 229.056 135.949 230.477 135.995C231.584 136.031 232.617 136.064 233.242 135.394C234.668 133.863 231.947 128.51 229.147 123.542C226.348 118.573 229.341 119.005 231.053 119.72C236.655 123.512 242.342 128.836 248.114 135.69ZM213.215 162.364L228.462 170.74L227.594 186.04C227.594 186.04 217.719 178.913 209.224 176.544C198.391 173.524 194.009 171.218 188.716 164.473C185.883 160.864 183.48 153.61 186.176 151.248C187.21 150.341 191.063 152.482 194.994 154.667C197.99 156.332 201.032 158.022 202.906 158.408C205.428 158.927 205.133 155.657 204.897 153.045C204.728 151.17 204.589 149.633 205.544 150.077C210.007 150.154 213.215 162.364 213.215 162.364Z" fill="#997659"/>
<path fill-rule="evenodd" clip-rule="evenodd" d="M299.728 150.465C287.57 150.337 271.358 147.769 254.06 136.789L247.266 151.939C259.198 163.78 275.976 173.51 290.646 173.098C302.207 172.773 308.115 158.789 299.728 150.465Z" fill="url(#paint0_linear_2_273)"/>
<path fill-rule="evenodd" clip-rule="evenodd" d="M332.517 254.259C344.076 252.752 354.696 251.367 360.99 252.606C368.051 229.673 362.187 215.234 356.774 201.905C353.512 193.871 350.413 186.24 350.407 177.397C350.388 151.642 329.708 112 326.665 112H325.792H301.679H298.918C297.678 127.937 292.383 145.193 287.055 162.56C285.81 166.615 284.564 170.677 283.367 174.729C263.202 179.307 218.426 163.373 218.426 163.373C218.426 163.373 207.122 186.759 207.975 196.717C234.038 210.331 256.375 216.401 274.779 216.802C274.194 227.721 275.523 238.112 279.988 247.606C285.971 260.327 310.886 257.079 332.517 254.259Z" fill="#FF9900"/>
</g>
<path d="M83.6 36.6L82 42L80.4 36.6L75 35L80.4 33.4L82 28L83.6 33.4L89 35L83.6 36.6ZM90 41.2L94 39L91.8 43L94 47L90 44.8L86 47L88.2 43L86 39L90 41.2ZM83 43L81.3 46L83 49L80 47.3L77 49L78.7 46L77 43L80 44.7L83 43Z" fill="#EEF2FF"/>
<path d="M9.52632 144.505L8.68421 147.333L7.84211 144.505L5 143.667L7.84211 142.829L8.68421 140L9.52632 142.829L12.3684 143.667L9.52632 144.505ZM12.8947 146.914L15 145.762L13.8421 147.857L15 149.952L12.8947 148.8L10.7895 149.952L11.9474 147.857L10.7895 145.762L12.8947 146.914ZM9.21053 147.857L8.31579 149.429L9.21053 151L7.63158 150.11L6.05263 151L6.94737 149.429L6.05263 147.857L7.63158 148.748L9.21053 147.857Z" fill="#EEF2FF"/>
<path d="M171.337 163.552L170.158 167.667L168.979 163.552L165 162.333L168.979 161.114L170.158 157L171.337 161.114L175.316 162.333L171.337 163.552ZM176.053 167.057L179 165.381L177.379 168.429L179 171.476L176.053 169.8L173.105 171.476L174.726 168.429L173.105 165.381L176.053 167.057ZM170.895 168.429L169.642 170.714L170.895 173L168.684 171.705L166.474 173L167.726 170.714L166.474 168.429L168.684 169.724L170.895 168.429Z" fill="#EEF2FF"/>
<path d="M0 41.5986C0 38.0601 3.04635 35.2901 6.56885 35.6256L78.5689 42.4827C81.6483 42.776 84 45.3624 84 48.4557V126.544C84 129.638 81.6483 132.224 78.5689 132.517L6.56885 139.374C3.04635 139.71 0 136.94 0 133.401V41.5986Z" fill="url(#paint1_radial_2_273)" fill-opacity="0.2"/>
<path d="M6.52145 36.1234L78.5215 42.9805C81.3443 43.2493 83.5 45.6202 83.5 48.4557V126.544C83.5 129.38 81.3442 131.751 78.5214 132.02L6.52145 138.877C3.29248 139.184 0.5 136.645 0.5 133.401V41.5986C0.5 38.355 3.29249 35.8158 6.52145 36.1234Z" stroke="white" stroke-opacity="0.5"/>
<path d="M21 55.4395C21 51.959 23.9517 49.2088 27.4234 49.4544L57.4234 51.5769C60.565 51.7992 63 54.4125 63 57.5619V79.4381C63 82.5875 60.565 85.2008 57.4234 85.4231L27.4234 87.5456C23.9517 87.7912 21 85.041 21 81.5605V55.4395Z" fill="url(#paint2_radial_2_273)" fill-opacity="0.5"/>
<path d="M22.2407 101.548C22.1085 99.3145 23.8342 97.4068 26.0698 97.3151L60.0468 95.9215C62.2259 95.8322 64.0749 97.5048 64.2038 99.6818L64.2404 100.301C64.3693 102.478 62.7305 104.357 60.5562 104.525L26.652 107.15C24.4212 107.323 22.4825 105.632 22.3502 103.398L22.2407 101.548Z" fill="#475569"/>
<path d="M20.2755 118.448C20.0509 116.204 21.7252 114.218 23.9751 114.06L57.9063 111.674C60.064 111.522 61.9515 113.114 62.1669 115.266L62.7697 121.289C62.9852 123.441 61.4505 125.375 59.3055 125.654L25.5747 130.041C23.338 130.332 21.3033 128.717 21.0787 126.472L20.2755 118.448Z" fill="#475569"/>
<defs>
<linearGradient id="paint0_linear_2_273" x1="303.673" y1="173.11" x2="270.606" y2="121.759" gradientUnits="userSpaceOnUse">
<stop stop-color="#FF9900"/>
<stop offset="1" stop-color="#FF002E"/>
</linearGradient>
<radialGradient id="paint1_radial_2_273" cx="0" cy="0" r="1" gradientUnits="userSpaceOnUse" gradientTransform="translate(2.5034e-06 140) rotate(-51.3402) scale(134.466 107.572)">
<stop stop-color="#F8FAFC"/>
<stop offset="1" stop-color="#F8FAFC" stop-opacity="0"/>
<stop offset="1" stop-color="#C5E2FF"/>
</radialGradient>
<radialGradient id="paint2_radial_2_273" cx="0" cy="0" r="1" gradientUnits="userSpaceOnUse" gradientTransform="translate(21 88) rotate(-42.265) scale(66.6854 66.3971)">
<stop stop-color="#00C2FF"/>
<stop offset="1" stop-color="#AD00FF"/>
</radialGradient>
</defs>
</svg>
